<svg xmlns="http://www.w3.org/2000/svg" width="1200" height="420" viewBox="0 0 1200 420" role="img" aria-labelledby="title desc">
  <title id="title">International Exam Guide</title>
  <desc id="desc">A Codex Skill for printable, image-rich OxfordAQA International GCSE and International AS-A-level revision guides.</desc>
  <defs>
    <linearGradient id="bg" x1="0" y1="0" x2="1" y2="0">
      <stop offset="0" stop-color="#124f9b"/>
      <stop offset="0.72" stop-color="#124f9b"/>
      <stop offset="0.72" stop-color="#b83246"/>
      <stop offset="1" stop-color="#b83246"/>
    </linearGradient>
    <filter id="shadow" x="-20%" y="-20%" width="140%" height="140%">
      <feDropShadow dx="0" dy="18" stdDeviation="18" flood-color="#06162f" flood-opacity="0.22"/>
    </filter>
  </defs>
  <rect width="1200" height="420" fill="url(#bg)" rx="28"/>
  <rect x="0" y="386" width="1200" height="10" fill="#d99a24"/>
  <g fill="#ffffff">
    <text x="72" y="94" font-family="Segoe UI, Arial, sans-serif" font-size="17" font-weight="700" letter-spacing="3">IMAGE-RICH REVISION GUIDES</text>
    <text x="72" y="162" font-family="Segoe UI, Arial, sans-serif" font-size="50" font-weight="800">International Exam Guide</text>
    <text x="72" y="216" font-family="Segoe UI, Arial, sans-serif" font-size="24" opacity="0.92">OxfordAQA International GCSE + International AS-A-level</text>
    <text x="72" y="260" font-family="Segoe UI, Arial, sans-serif" font-size="20" opacity="0.9">Subject request in. Visual HTML/PDF revision guide out.</text>
  </g>
  <g filter="url(#shadow)">
    <rect x="802" y="72" width="302" height="250" rx="20" fill="#fffaf1"/>
    <rect x="828" y="96" width="194" height="14" rx="7" fill="#124f9b"/>
    <rect x="828" y="126" width="226" height="10" rx="5" fill="#c7d6eb"/>
    <rect x="828" y="148" width="190" height="10" rx="5" fill="#c7d6eb"/>
    <rect x="828" y="186" width="240" height="58" rx="12" fill="#edf4ff" stroke="#adc4e5"/>
    <rect x="844" y="204" width="92" height="10" rx="5" fill="#124f9b"/>
    <rect x="844" y="224" width="170" height="8" rx="4" fill="#9eb5d1"/>
    <rect x="828" y="260" width="240" height="34" rx="10" fill="#f8e3e8" stroke="#e0a2ae"/>
    <text x="844" y="282" font-family="Segoe UI, Arial, sans-serif" font-size="12" font-weight="700" fill="#b83246">topics + examples + infographics + PDF</text>
  </g>
</svg>
